<?xml version="1.0" standalone="no"?>
<!DOCTYPE svg PUBLIC "-//W3C//DTD SVG 20010904//EN"
 "http://www.w3.org/TR/2001/REC-SVG-20010904/DTD/svg10.dtd">
<svg version="1.0" xmlns="http://www.w3.org/2000/svg"
 width="940.000000pt" height="940.000000pt" viewBox="0 0 940.000000 940.000000"
 preserveAspectRatio="xMidYMid meet">

<g transform="translate(0.000000,940.000000) scale(0.100000,-0.100000)"
fill="#000000" stroke="none">
<path d="M5218 7234 c-47 -24 -48 -26 -48 -71 0 -39 2 -44 18 -38 9 4 33 13
52 20 33 12 35 16 38 64 2 28 -1 51 -5 50 -4 0 -29 -12 -55 -25z"/>
<path d="M4945 7168 c-27 -11 -63 -25 -80 -33 -16 -7 -77 -32 -135 -55 -58
-23 -117 -48 -132 -56 -14 -8 -31 -14 -37 -14 -6 0 -39 -13 -73 -29 -35 -15
-79 -34 -98 -41 -36 -13 -69 -26 -130 -53 -19 -8 -82 -34 -140 -57 -233 -93
-355 -149 -486 -225 -114 -66 -244 -155 -244 -167 0 -4 -5 -8 -10 -8 -14 0
-160 -146 -160 -159 0 -6 -4 -11 -9 -11 -5 0 -20 -17 -32 -37 -13 -21 -25 -40
-29 -43 -12 -11 -59 -108 -73 -150 -31 -93 -49 -219 -42 -283 18 -157 42 -226
122 -350 48 -74 199 -231 232 -242 12 -3 21 -11 21 -16 0 -5 4 -9 10 -9 5 0
31 -13 57 -29 27 -16 66 -35 88 -42 22 -7 49 -19 60 -26 11 -7 27 -13 37 -13
9 0 32 -6 50 -14 39 -16 161 -47 166 -41 2 2 -18 14 -45 28 -71 35 -167 89
-173 96 -3 4 -18 15 -35 25 -55 35 -148 127 -203 201 -52 70 -92 198 -92 293
0 72 31 205 51 218 5 3 9 14 9 25 0 10 3 19 8 19 4 0 16 19 27 42 25 52 135
171 231 248 86 69 222 152 286 174 54 18 120 45 203 81 17 8 62 25 100 40 99
37 145 55 180 70 17 7 48 19 70 28 92 35 182 70 210 82 45 20 157 63 183 70
19 6 22 13 22 61 l0 55 45 19 45 19 0 56 c0 49 -2 54 -17 46 -33 -16 -83 -29
-86 -23 -2 4 -5 28 -6 54 l-2 47 55 16 56 16 0 60 c0 32 -1 59 -2 58 -2 0 -25
-10 -53 -21z"/>
<path d="M5073 7096 c-42 -20 -43 -22 -43 -68 l0 -49 28 14 c15 8 39 17 55 21
25 6 27 10 27 56 0 56 -3 58 -67 26z"/>
<path d="M5093 6915 c-53 -24 -53 -24 -53 -70 0 -44 1 -45 28 -39 65 16 80 30
84 84 1 27 1 50 -2 50 -3 0 -29 -11 -57 -25z"/>
<path d="M5524 6691 c4 -6 12 -11 18 -11 13 0 79 -32 123 -60 17 -11 44 -27
60 -36 17 -9 32 -20 35 -23 3 -4 21 -18 40 -31 78 -55 170 -160 210 -240 131
-267 40 -537 -266 -787 -57 -46 -176 -123 -191 -123 -7 0 -13 -3 -13 -8 0 -9
-140 -71 -197 -87 l-21 -6 20 38 c16 31 18 50 14 100 -4 54 -11 71 -47 119
-51 69 -61 79 -127 127 -28 21 -52 42 -52 45 0 4 11 19 25 34 14 15 25 30 25
33 0 4 12 22 26 41 22 28 33 34 65 34 44 0 45 1 23 35 -19 30 -12 70 15 84 32
18 45 -33 37 -147 -7 -104 -4 -105 38 -13 23 48 20 73 -16 130 -28 46 -30 53
-16 69 30 34 29 41 -3 61 -32 20 -59 15 -59 -11 0 -5 -14 -30 -32 -54 -30 -42
-33 -43 -71 -37 l-39 6 7 -42 c7 -40 5 -43 -43 -94 -28 -28 -63 -68 -78 -87
-16 -19 -39 -45 -51 -57 -13 -12 -23 -26 -23 -32 0 -5 -3 -11 -8 -13 -4 -1
-23 -23 -41 -48 -58 -76 -94 -110 -117 -110 -22 0 -58 37 -117 118 -17 23 -34
42 -39 42 -4 0 -8 6 -9 13 0 6 -16 26 -36 42 -75 64 -103 92 -103 104 0 6 -4
11 -9 11 -5 0 -12 11 -15 25 -4 14 -11 25 -16 25 -6 0 -10 4 -10 10 0 20 -62
110 -76 110 -18 0 -18 -14 1 -30 21 -17 19 -41 -9 -102 -40 -91 -46 -108 -46
-137 0 -30 -14 -40 -53 -42 -21 -1 -58 -21 -145 -83 -30 -20 -53 -28 -82 -28
-28 1 -40 -3 -37 -11 11 -33 88 -13 182 48 40 26 81 45 97 45 26 0 38 -14 21
-22 -11 -4 -59 -77 -74 -110 -7 -16 -16 -28 -21 -28 -4 0 -8 -5 -8 -11 0 -16
-42 -48 -65 -49 -11 0 -31 -7 -45 -15 l-25 -14 33 -1 c19 0 48 8 65 18 32 17
97 81 97 95 0 4 5 7 11 7 7 0 6 -9 -4 -23 -22 -34 -31 -107 -18 -153 13 -48
113 -157 162 -178 40 -17 76 -49 90 -79 20 -47 46 -82 68 -93 22 -11 22 -11
-6 -22 -15 -5 -36 -13 -45 -16 -14 -4 -18 -17 -18 -60 0 -58 -4 -64 -55 -81
-22 -8 -31 -18 -36 -43 -11 -55 -2 -72 35 -65 17 3 35 10 41 14 20 19 26 7 23
-48 l-3 -58 -42 -10 c-23 -6 -44 -13 -47 -16 -10 -10 -18 -107 -9 -112 4 -3
31 5 58 17 42 20 154 66 230 96 11 4 80 33 153 64 74 31 138 56 143 56 5 0 37
13 71 29 35 15 95 41 133 56 39 15 84 33 100 40 17 8 66 28 110 45 133 53 211
90 315 149 30 18 67 37 83 42 15 6 27 15 27 20 0 5 5 9 12 9 6 0 27 12 47 28
19 15 49 36 67 47 42 27 129 101 173 149 20 21 46 49 57 61 20 20 59 76 90
130 80 136 109 283 89 458 -10 87 -18 115 -52 184 -67 132 -159 248 -258 321
-27 20 -55 41 -61 47 -37 35 -284 139 -369 155 -22 4 -53 11 -69 15 -21 6 -27
5 -22 -4z m-1204 -1096 c-7 -9 -15 -13 -19 -10 -3 3 1 10 9 15 21 14 24 12 10
-5z m-30 -46 c-7 -11 -14 -19 -16 -16 -7 7 7 37 17 37 6 0 5 -9 -1 -21z"/>
<path d="M4670 6461 c-16 -4 -26 -15 -28 -31 -3 -20 -1 -23 9 -12 18 17 56 15
63 -4 3 -9 6 -33 6 -54 0 -35 -4 -40 -42 -60 -24 -12 -56 -30 -73 -40 -75 -48
-87 -52 -134 -46 -117 16 -141 17 -156 8 -13 -7 -5 -10 34 -15 27 -3 63 -12
78 -20 l27 -15 -54 -10 -55 -10 53 -1 c56 -1 66 -11 30 -29 -21 -11 -21 -11 7
-6 l30 6 -30 -26 c-16 -14 -46 -28 -66 -32 -20 -3 -36 -12 -36 -19 0 -11 21
-13 101 -10 68 3 90 2 68 -4 -51 -13 -52 -23 -2 -21 88 4 82 8 139 -104 29
-57 63 -113 74 -124 63 -56 143 -41 195 38 18 27 32 55 32 64 0 8 4 16 8 18 5
2 21 30 37 63 64 134 25 286 -85 337 -38 17 -50 28 -54 52 -10 46 -52 94 -94
106 -41 11 -46 11 -82 1z"/>
<path d="M4610 5805 c0 -25 4 -45 8 -45 4 0 16 -15 27 -32 10 -18 27 -42 37
-53 9 -11 40 -45 68 -75 l50 -55 23 30 c12 16 29 37 37 45 8 8 41 48 73 89 51
65 57 78 51 105 -8 37 -13 44 -22 29 -6 -10 -64 -76 -138 -160 -30 -34 -32
-34 -45 -16 -14 19 -91 109 -136 159 -12 13 -25 24 -28 24 -3 0 -5 -20 -5 -45z"/>
<path d="M4315 4851 c-64 -16 -75 -28 -75 -82 0 -28 3 -49 8 -47 109 48 112
51 112 95 0 24 -3 43 -7 42 -5 -1 -21 -4 -38 -8z"/>
<path d="M4310 4660 c-47 -19 -63 -49 -51 -97 l6 -23 53 26 c51 24 52 25 52
69 0 50 2 50 -60 25z"/>
<path d="M4195 4530 c-3 -5 -16 -10 -28 -10 -40 0 -51 -16 -51 -69 -1 -28 0
-51 2 -51 2 0 28 12 58 26 53 25 54 26 54 70 0 32 -4 44 -14 44 -8 0 -18 -4
-21 -10z"/>
<path d="M3596 3972 c-12 -37 19 -96 72 -137 28 -22 51 -47 51 -56 1 -23 34
-49 62 -49 121 3 220 83 162 132 -29 23 -174 78 -208 78 -7 0 -38 11 -69 25
-67 30 -63 29 -70 7z"/>
<path d="M5646 3983 c-3 -4 -3 -36 0 -73 6 -65 6 -67 -25 -92 -17 -15 -31 -35
-31 -44 0 -31 41 -104 71 -126 16 -12 29 -30 29 -41 0 -25 -115 -137 -140
-137 -6 0 -10 -4 -10 -10 0 -5 -18 -15 -40 -21 -58 -18 -65 -30 -47 -84 16
-47 37 -75 56 -75 6 0 11 -4 11 -10 0 -5 22 -10 49 -10 50 0 109 19 251 82 83
37 118 48 172 54 55 6 58 5 67 -19 6 -15 13 -49 17 -77 6 -42 4 -50 -9 -50
-20 0 -131 51 -135 62 -6 14 -32 9 -32 -6 0 -8 -15 -17 -36 -21 -38 -7 -110
-41 -120 -56 -7 -12 -131 -11 -139 1 -15 24 -35 9 -35 -25 0 -75 61 -145 127
-145 30 1 63 20 63 38 0 23 70 40 189 47 110 7 121 6 121 -9 0 -10 -4 -15 -9
-12 -10 7 -51 -57 -51 -79 0 -7 -6 -15 -14 -18 -20 -8 -81 10 -96 28 -10 13
-18 12 -53 -7 -23 -12 -54 -27 -69 -35 -14 -7 -48 -14 -75 -14 -74 -2 -106
-12 -119 -36 l-11 -23 -11 23 c-6 12 -13 41 -16 65 -7 48 -25 82 -43 82 -9 0
-13 -20 -13 -69 0 -67 1 -70 36 -100 71 -63 115 -85 166 -82 26 1 56 -2 65 -8
20 -10 115 10 137 28 7 6 37 13 68 17 31 4 61 9 67 13 6 4 17 40 26 81 8 40
19 78 24 84 27 35 59 108 65 150 4 27 15 60 23 73 8 13 16 46 16 73 1 40 -4
54 -23 72 -30 28 -85 58 -105 58 -8 0 -15 5 -15 10 0 13 -35 13 -58 1 -162
-87 -312 -135 -312 -99 0 28 96 105 205 163 76 41 85 49 85 81 0 27 -29 52
-74 65 -20 5 -36 14 -36 19 0 6 -7 10 -15 10 -20 0 -19 7 5 33 12 12 23 32 26
44 7 26 -18 71 -44 80 -25 7 -85 36 -102 48 -25 18 -68 34 -74 28z"/>
<path d="M7423 3908 c2 -35 16 -103 31 -153 14 -49 26 -100 26 -112 0 -44 -66
-52 -85 -10 -6 11 -22 24 -36 28 -15 4 -44 18 -65 33 -55 37 -71 34 -84 -16
-43 -161 -100 -288 -135 -302 -8 -3 -15 -13 -16 -23 0 -10 -9 -31 -20 -48 -10
-16 -23 -39 -29 -50 -6 -11 -19 -33 -30 -50 -10 -16 -28 -48 -39 -70 -12 -22
-30 -53 -41 -70 -11 -16 -24 -40 -29 -52 -18 -40 -29 -33 -34 25 -7 74 -23
143 -33 151 -22 15 -32 47 -20 63 12 17 74 47 149 72 101 34 119 50 110 98 -5
26 -8 28 -143 91 -14 7 -31 18 -39 25 -19 18 -46 10 -45 -13 1 -11 5 -41 9
-66 7 -44 6 -47 -33 -87 -23 -23 -48 -42 -56 -42 -8 0 -22 -8 -31 -17 -13 -13
-33 -16 -91 -15 l-74 2 0 -36 c0 -23 10 -53 27 -80 22 -35 37 -46 79 -59 42
-13 55 -23 68 -50 19 -40 21 -116 3 -153 -8 -15 -19 -52 -27 -83 -15 -69 -3
-118 43 -166 34 -37 62 -41 107 -18 28 15 30 19 30 76 0 59 34 216 51 234 5 5
9 15 9 22 0 17 54 134 84 182 12 20 28 52 36 71 11 29 60 102 80 120 13 11 70
107 70 117 0 6 12 18 26 28 23 15 30 15 53 4 14 -8 32 -20 39 -26 22 -21 84
-15 123 11 l36 25 6 -214 c6 -228 2 -268 -29 -273 -10 -2 -23 -9 -29 -15 -19
-22 -151 -80 -230 -101 -33 -9 -41 -16 -43 -40 -11 -94 89 -172 173 -134 14 6
27 9 30 6 9 -9 -45 -96 -70 -112 -14 -9 -25 -23 -25 -31 0 -7 -8 -16 -19 -20
-20 -6 -71 -59 -71 -75 0 -5 -4 -10 -10 -10 -5 0 -10 -6 -10 -14 0 -7 -13 -19
-30 -26 -16 -7 -30 -19 -30 -26 0 -8 -9 -14 -19 -14 -11 0 -21 -4 -23 -9 -4
-10 -134 -58 -206 -76 -29 -7 -56 -15 -59 -18 -3 -4 -18 0 -34 8 -43 23 -69
19 -69 -9 0 -61 66 -146 114 -146 23 0 59 22 91 56 11 11 27 24 35 27 8 4 30
16 49 28 51 31 128 56 341 110 97 25 119 38 154 94 11 17 38 55 60 85 40 52
42 59 45 135 2 70 16 177 24 179 49 20 100 30 232 46 88 10 177 26 198 34 31
14 37 21 37 47 0 32 -34 99 -51 99 -5 0 -9 6 -9 14 0 8 -4 16 -8 18 -18 7 -72
92 -72 113 0 24 -44 95 -66 108 -8 4 -14 13 -14 20 0 6 -14 41 -31 77 -46 97
-49 103 -51 129 -3 20 3 27 30 34 38 12 73 -2 87 -36 17 -37 54 -42 133 -18
82 25 96 45 62 88 -25 32 -74 63 -98 63 -10 0 -27 7 -38 15 -27 20 -37 19 -55
-11 -11 -18 -36 -33 -84 -49 -38 -12 -74 -21 -79 -18 -10 4 -51 85 -91 179
-12 28 -31 49 -64 69 -52 33 -118 65 -133 65 -6 0 -8 -25 -5 -62z m222 -228
c17 -32 19 -50 7 -50 -7 0 -32 57 -32 73 0 15 10 6 25 -23z m57 -105 c6 -14
15 -25 20 -25 4 0 8 -6 8 -14 0 -8 6 -27 14 -43 16 -31 31 -68 40 -95 5 -16 2
-16 -32 2 -36 20 -72 26 -72 13 0 -3 8 -30 17 -59 13 -43 14 -59 5 -79 -6 -14
-17 -25 -24 -25 -10 0 -13 30 -14 119 0 71 -6 136 -14 160 -10 33 -11 43 0 56
18 22 39 18 52 -10z m168 -457 l0 -63 -45 -18 c-25 -11 -45 -23 -45 -28 0 -5
-5 -9 -11 -9 -6 0 -27 -13 -46 -30 -21 -18 -45 -30 -63 -30 -15 0 -35 -3 -44
-6 -13 -5 -13 -1 -3 28 13 35 42 68 62 68 6 0 46 34 88 75 43 41 84 75 92 75
12 0 15 -14 15 -62z"/>
<path d="M5058 3845 c-20 -18 -55 -39 -77 -45 -22 -6 -47 -18 -56 -26 -10 -10
-22 -13 -33 -8 -19 8 -120 8 -169 -1 -30 -5 -33 -9 -33 -43 0 -20 9 -53 21
-72 50 -84 109 -93 179 -27 25 23 51 54 59 68 9 18 30 32 67 45 66 22 78 14
61 -41 -15 -48 -39 -86 -91 -137 -35 -36 -37 -42 -31 -76 7 -41 34 -92 48 -92
5 0 15 -7 23 -15 11 -11 38 -15 99 -15 76 0 83 -2 88 -22 8 -30 -18 -125 -47
-167 -32 -49 -96 -121 -107 -121 -5 0 -9 4 -9 10 0 5 -11 26 -25 46 -14 20
-25 51 -25 69 0 71 -11 96 -49 112 -69 29 -106 48 -119 61 -8 7 -18 9 -24 6
-12 -7 -8 -55 17 -229 26 -179 36 -360 29 -529 -7 -151 -6 -158 12 -154 10 2
23 18 30 38 27 81 79 277 95 359 11 55 13 57 41 37 12 -9 31 -16 41 -16 28 0
76 32 83 55 8 26 116 248 124 255 3 3 16 21 27 40 12 19 30 44 40 55 30 32 34
53 17 95 -16 40 -68 80 -103 80 -10 0 -24 7 -31 15 -7 8 -25 15 -40 15 -16 0
-35 3 -44 6 -20 8 -20 52 -1 78 8 11 15 28 15 38 0 10 5 18 10 18 6 0 10 5 10
12 0 7 20 30 44 53 79 73 74 111 -22 158 -37 17 -68 35 -70 39 -8 17 -39 6
-74 -27z"/>
<path d="M1780 3833 c0 -16 8 -41 17 -58 14 -24 17 -52 16 -137 -1 -92 -4
-113 -23 -143 -25 -40 -52 -54 -100 -53 -18 1 -35 -4 -39 -10 -4 -6 -12 -7
-20 -3 -7 5 -36 3 -65 -5 -73 -20 -111 -17 -159 9 -41 23 -126 57 -140 57 -4
0 -7 -27 -7 -60 0 -99 56 -182 122 -182 19 0 74 21 133 50 156 77 251 122 259
122 19 0 -6 -129 -38 -200 -17 -37 -37 -72 -47 -80 -3 -3 -16 -23 -29 -45 -13
-22 -29 -43 -34 -47 -6 -4 -11 -31 -11 -61 0 -64 32 -114 91 -142 36 -17 38
-17 124 12 l88 30 13 -82 c6 -45 9 -95 5 -111 -4 -16 -10 -49 -13 -74 -3 -32
-13 -52 -31 -67 -30 -27 -30 -27 -84 -6 -44 17 -68 36 -122 89 -33 33 -86 64
-109 64 -8 0 -31 11 -52 26 -58 39 -77 31 -92 -41 -6 -33 -13 -107 -15 -165
-3 -97 -1 -108 20 -138 43 -59 114 -80 151 -43 17 17 18 24 8 50 -6 17 -17 31
-24 31 -8 0 -13 13 -13 35 0 42 43 115 67 115 17 0 95 -48 101 -62 2 -5 10 -8
17 -8 7 0 15 -3 17 -7 3 -7 61 -48 113 -80 74 -45 139 -54 178 -23 15 12 27
27 27 34 0 8 9 34 21 60 19 45 20 57 12 246 -8 205 -4 240 28 240 10 0 20 4
24 10 3 5 20 14 38 19 18 6 57 19 87 29 40 14 63 17 85 11 70 -21 115 -4 115
43 -1 41 -26 60 -128 94 -35 13 -49 13 -80 2 -20 -6 -43 -16 -49 -21 -7 -5
-41 -12 -76 -14 -51 -4 -78 0 -147 22 -47 16 -95 35 -107 43 -20 12 -24 12
-29 -2 -6 -16 22 -114 37 -130 5 -6 9 -31 9 -57 0 -44 -2 -47 -31 -53 -17 -3
-49 -6 -70 -6 l-39 0 0 63 c0 81 30 172 115 352 14 28 29 62 34 78 18 46 44
50 346 53 268 2 386 12 393 34 2 6 10 10 18 10 22 0 17 43 -8 65 -30 26 -128
74 -151 75 -11 0 -31 -6 -45 -14 -67 -34 -88 -41 -129 -40 -23 0 -43 -3 -43
-8 0 -4 -12 -8 -27 -7 -16 0 -72 -7 -125 -17 l-97 -18 -27 24 c-30 29 -54 81
-54 120 0 33 -23 55 -79 75 -24 8 -58 24 -76 35 -42 26 -45 25 -45 -7z m550
-264 c-44 -20 -115 -25 -124 -10 -6 10 132 40 152 33 7 -3 -5 -13 -28 -23z
m-92 -501 c-3 -7 -27 -19 -54 -27 -27 -9 -52 -20 -56 -25 -4 -6 -15 1 -27 15
-36 43 -28 49 60 49 59 0 80 -3 77 -12z"/>
<path d="M4345 3613 c-11 -3 -33 -11 -50 -19 -16 -7 -37 -12 -45 -11 -20 2
-131 -13 -150 -20 -8 -4 -18 -5 -22 -5 -30 7 -409 -56 -482 -79 -16 -5 -50 -9
-75 -9 -25 0 -55 -7 -65 -15 -11 -8 -29 -15 -40 -15 -12 0 -41 -12 -66 -26
-24 -14 -53 -23 -63 -20 -11 3 -44 0 -73 -6 -51 -10 -91 -7 -253 19 l-34 6 7
-44 c13 -90 128 -149 288 -149 89 0 117 7 225 56 28 13 54 24 57 24 3 0 28 14
56 30 28 17 62 30 76 30 23 0 25 -3 22 -37 -2 -31 -7 -39 -27 -41 -13 -2 -35
2 -47 9 -13 7 -27 10 -30 6 -8 -8 27 -107 38 -107 15 0 8 -39 -18 -99 -15 -34
-31 -61 -35 -61 -5 0 -9 -5 -9 -11 0 -16 -60 -139 -90 -184 -15 -22 -40 -67
-56 -100 -16 -33 -36 -67 -45 -76 -52 -53 -169 -312 -169 -375 0 -11 -10 -24
-22 -29 -12 -6 -26 -19 -32 -30 -6 -11 -17 -24 -24 -30 -10 -8 -9 -15 3 -33 9
-12 22 -22 30 -22 16 0 65 60 65 79 0 17 109 121 126 121 8 0 14 5 14 10 0 6
6 10 13 10 7 0 27 14 45 30 18 17 35 30 38 30 7 0 64 63 64 71 0 4 24 -17 54
-45 56 -55 178 -121 276 -150 53 -16 55 -16 100 7 31 16 63 47 102 98 31 41
57 79 57 86 1 6 5 13 10 15 11 4 84 158 110 233 21 59 29 188 13 211 -8 12
-111 73 -157 93 -16 8 -40 18 -52 24 -22 10 -63 2 -131 -24 -13 -5 -32 -9 -42
-9 -11 0 -20 -4 -20 -10 0 -5 -5 -10 -10 -10 -6 0 -4 16 6 38 35 84 54 148 54
185 0 44 18 67 52 67 34 0 63 23 55 44 -8 21 -31 21 -52 -1 -26 -25 -128 -22
-182 6 -24 12 -43 26 -43 31 0 9 94 60 112 60 5 0 24 6 41 13 47 20 125 44
187 57 30 7 72 16 92 21 61 16 168 23 168 12 0 -16 -103 -103 -123 -103 -9 0
-34 -9 -55 -20 -20 -11 -54 -23 -74 -26 -21 -4 -38 -11 -38 -16 0 -6 -7 -7
-16 -4 -12 5 -15 2 -10 -10 3 -8 6 -18 6 -20 0 -9 39 -4 45 6 3 6 16 10 28 10
13 0 31 6 42 14 39 26 141 58 215 67 41 5 93 13 115 20 38 10 95 53 95 71 0
15 -53 60 -87 74 -33 14 -52 16 -88 7z m-325 -743 c0 -16 -5 -42 -11 -57 -24
-60 -51 -113 -60 -118 -5 -4 -9 -17 -9 -31 0 -13 -6 -24 -12 -24 -13 -1 -69
-105 -68 -127 0 -7 -5 -13 -11 -13 -6 0 -26 -12 -44 -26 -48 -36 -101 -41
-153 -15 -23 12 -42 26 -42 31 0 6 -4 10 -10 10 -15 0 -47 35 -55 59 -4 13 1
27 14 40 12 12 21 24 21 27 0 3 13 23 28 43 29 37 82 140 82 158 0 17 48 31
145 42 50 6 104 15 120 20 54 17 65 14 65 -19z"/>
<path d="M7252 3235 c-7 -25 -12 -54 -12 -65 0 -24 31 -90 42 -90 4 0 8 -7 8
-15 0 -18 60 -30 96 -18 19 6 31 22 45 58 11 28 19 57 19 66 0 22 -27 43 -83
64 -27 10 -51 24 -54 32 -3 7 -15 13 -27 13 -17 0 -24 -9 -34 -45z"/>
<path d="M6046 2893 c-12 -12 -6 -44 18 -91 32 -62 57 -82 106 -82 49 0 52
-15 10 -55 -35 -33 -37 -46 -12 -68 29 -27 54 -20 128 34 38 27 88 62 111 77
67 43 55 87 -35 128 -31 14 -64 30 -74 35 -9 4 -29 3 -47 -4 -25 -9 -41 -8
-83 5 -65 21 -114 29 -122 21z"/>
<path d="M2346 2813 c-12 -12 -6 -50 14 -91 23 -48 24 -52 8 -103 -12 -42 -37
-51 -64 -24 -14 14 -54 21 -54 10 0 -2 9 -23 21 -45 27 -51 121 -136 160 -144
94 -18 130 32 132 185 2 114 2 115 -103 168 -84 43 -107 51 -114 44z"/>
<path d="M5705 2789 c-12 -19 6 -97 28 -121 23 -26 85 -58 111 -58 9 0 39 -12
66 -27 38 -20 50 -33 50 -50 0 -20 -3 -22 -19 -13 -11 5 -50 10 -88 10 -64 0
-72 2 -135 46 -38 25 -68 49 -68 53 0 7 -43 30 -102 55 -21 9 -53 23 -72 31
-19 8 -37 15 -40 15 -3 0 -6 -7 -6 -15 0 -25 -46 -18 -126 19 -40 19 -76 31
-79 26 -9 -15 16 -113 46 -176 16 -35 43 -72 62 -87 32 -24 34 -24 77 -10 24
8 55 28 69 44 14 16 32 29 39 29 14 0 114 -63 146 -92 11 -10 23 -18 28 -18 4
0 21 -14 39 -31 29 -29 35 -30 93 -26 33 2 87 14 119 25 42 16 79 21 130 20
40 -1 87 2 105 6 28 7 32 12 32 40 0 24 -7 38 -27 53 -35 25 -169 89 -205 97
-36 8 -35 17 2 44 47 35 39 53 -38 90 -60 28 -79 32 -150 32 -47 0 -84 -5 -87
-11z"/>
<path d="M7810 2716 c0 -33 29 -73 111 -156 29 -28 38 -63 20 -74 -16 -11 -62
13 -104 54 -40 38 -77 52 -77 30 0 -5 5 -10 10 -10 6 0 10 -5 10 -11 0 -6 6
-16 13 -23 6 -7 41 -45 76 -85 85 -96 137 -131 194 -131 61 0 77 20 77 98 0
71 -35 169 -72 207 -29 29 -124 85 -144 85 -8 0 -32 11 -54 25 -52 33 -60 32
-60 -9z"/>
<path d="M5129 2611 c-6 -17 -14 -31 -19 -31 -4 0 -20 -24 -35 -54 -15 -30
-39 -60 -53 -67 -37 -20 -72 -58 -72 -81 0 -12 -4 -16 -12 -12 -6 4 -17 -1
-24 -11 -17 -23 -25 -15 -33 32 -9 53 -25 51 -50 -8 -24 -55 -22 -117 5 -143
8 -8 14 -19 14 -24 0 -5 11 -13 24 -16 13 -3 31 -9 39 -12 25 -9 73 46 117
133 22 44 40 84 40 87 0 11 38 87 60 121 41 63 49 104 22 113 -7 2 -17 -9 -23
-27z"/>
</g>
</svg>
